<svg width="68" height="68" viewBox="0 0 68 68" fill="none" xmlns="http://www.w3.org/2000/svg">
<rect width="68" height="68" rx="20" fill="white"/>
<g clip-path="url(#clip0_183_29260)">
<path opacity="0.4" d="M54.11 42.5997C54.11 48.3345 49.5057 52.98 43.7708 53.0005H43.7503H23.3803C17.666 53.0005 13 48.3756 13 42.6408V42.6203C13 42.6203 13.0123 33.5226 13.0288 28.9471C13.0308 28.0879 14.0175 27.6069 14.6896 28.1413C19.5735 32.0159 28.3073 39.0807 28.4162 39.1732C29.8757 40.3428 31.7256 41.0026 33.6167 41.0026C35.5077 41.0026 37.3577 40.3428 38.8171 39.1506C38.926 39.0786 47.4646 32.2256 52.4224 28.2873C53.0966 27.7508 54.0874 28.2318 54.0894 29.0889C54.11 33.6295 54.11 42.5997 54.11 42.5997Z" fill="#0328EE"/>
<path d="M53.0331 21.4964C51.253 18.1418 47.7504 16 43.8943 16H23.3804C19.5243 16 16.0217 18.1418 14.2417 21.4964C13.8429 22.2467 14.032 23.1819 14.696 23.7122L29.958 35.9198C31.0269 36.7832 32.3219 37.2128 33.6168 37.2128C33.6251 37.2128 33.6312 37.2128 33.6374 37.2128C33.6436 37.2128 33.6518 37.2128 33.6579 37.2128C34.9529 37.2128 36.2479 36.7832 37.3167 35.9198L52.5788 23.7122C53.2427 23.1819 53.4318 22.2467 53.0331 21.4964Z" fill="#0328EE"/>
</g>
<defs>
<clipPath id="clip0_183_29260">
<rect width="42" height="37" fill="white" transform="translate(13 16)"/>
</clipPath>
</defs>
</svg>
