<svg width="38" height="38" viewBox="0 0 38 38" fill="none" xmlns="http://www.w3.org/2000/svg">
<rect width="38" height="38" rx="19" fill="#0328EE"/>
<g clip-path="url(#clip0_183_29471)">
<path opacity="0.4" d="M29.2063 23.6257C29.2063 26.5634 26.8315 28.9429 23.8737 28.9535H23.8631H13.3569C10.4097 28.9535 8.00317 26.5844 8.00317 23.6467V23.6362C8.00317 23.6362 8.00953 18.976 8.01802 16.6321C8.01908 16.192 8.52795 15.9456 8.87462 16.2194C11.3935 18.2042 15.8981 21.8231 15.9543 21.8705C16.707 22.4696 17.6612 22.8076 18.6365 22.8076C19.6119 22.8076 20.566 22.4696 21.3187 21.8589C21.3749 21.822 25.7788 18.3116 28.3359 16.2942C28.6837 16.0193 29.1946 16.2657 29.1957 16.7048C29.2063 19.0307 29.2063 23.6257 29.2063 23.6257Z" fill="white"/>
<path d="M28.6497 12.8155C27.7316 11.0971 25.925 10 23.9362 10H13.3559C11.367 10 9.56052 11.0971 8.64243 12.8155C8.43676 13.1998 8.53429 13.6789 8.87672 13.9506L16.7484 20.2039C17.2996 20.6462 17.9675 20.8662 18.6355 20.8662C18.6397 20.8662 18.6428 20.8662 18.6461 20.8662C18.6492 20.8662 18.6534 20.8662 18.6566 20.8662C19.3245 20.8662 19.9925 20.6462 20.5437 20.2039L28.4153 13.9506C28.7578 13.6789 28.8553 13.1998 28.6497 12.8155Z" fill="white"/>
</g>
<defs>
<clipPath id="clip0_183_29471">
<rect width="22" height="19" fill="white" transform="translate(8.00317 10)"/>
</clipPath>
</defs>
</svg>
