<svg width="12" height="12" viewBox="0 0 12 12" fill="none" xmlns="http://www.w3.org/2000/svg">
<path d="M2.26683 0.866708C2.14742 0.866708 2.02788 0.912194 1.93688 1.00343L1.00355 1.93676C0.821083 2.11923 0.821083 2.41466 1.00355 2.59666L4.40693 6.00004L1.00355 9.40343C0.821083 9.58589 0.821083 9.88132 1.00355 10.0633L1.93688 10.9967C2.11935 11.1791 2.41478 11.1791 2.59678 10.9967L6.00016 7.59327L9.40355 10.9967C9.58555 11.1791 9.88144 11.1791 10.0634 10.9967L10.9968 10.0633C11.1792 9.88086 11.1792 9.58543 10.9968 9.40343L7.59339 6.00004L10.9968 2.59666C11.1792 2.41466 11.1792 2.11876 10.9968 1.93676L10.0634 1.00343C9.88098 0.82096 9.58555 0.82096 9.40355 1.00343L6.00016 4.40681L2.59678 1.00343C2.50555 0.912194 2.38624 0.866708 2.26683 0.866708Z" fill="white"/>
</svg>
